<svg xmlns="http://www.w3.org/2000/svg" xmlns:xlink="http://www.w3.org/1999/xlink" width="500" zoomAndPan="magnify" viewBox="0 0 375 374.999991" height="500" preserveAspectRatio="xMidYMid meet" version="1.0"><defs><filter x="0%" y="0%" width="100%" height="100%" id="f6899a54b9"><feColorMatrix values="0 0 0 0 1 0 0 0 0 1 0 0 0 0 1 0 0 0 1 0" color-interpolation-filters="sRGB"/></filter><g/><clipPath id="f59d5d6e92"><path d="M 0 37 L 305 37 L 305 356 L 0 356 Z M 0 37 " clip-rule="nonzero"/></clipPath><clipPath id="6e0a99c949"><path d="M 0 50.605469 L 290.707031 37.507812 L 304.445312 342.449219 L 13.738281 355.546875 Z M 0 50.605469 " clip-rule="nonzero"/></clipPath><clipPath id="f87911a99d"><path d="M 0 50.605469 L 304.941406 36.867188 L 318.679688 341.808594 L 13.738281 355.546875 Z M 0 50.605469 " clip-rule="nonzero"/></clipPath><mask id="48b5c4f886"><g filter="url(#f6899a54b9)"><rect x="-37.5" width="450" fill="#000000" y="-37.499999" height="449.999989" fill-opacity="0.8"/></g></mask><clipPath id="39bb30a4ef"><path d="M 297 140 L 304.558594 140 L 304.558594 199 L 297 199 Z M 297 140 " clip-rule="nonzero"/></clipPath><clipPath id="11186fc0ec"><path d="M 0 13.605469 L 290.707031 0.507812 L 304.445312 305.449219 L 13.738281 318.546875 Z M 0 13.605469 " clip-rule="nonzero"/></clipPath><clipPath id="7dcc8b4e74"><path d="M 0 13.605469 L 304.941406 -0.132812 L 318.679688 304.808594 L 13.738281 318.546875 Z M 0 13.605469 " clip-rule="nonzero"/></clipPath><mask id="109516d912"><g filter="url(#f6899a54b9)"><rect x="-82.5" width="540" fill="#000000" y="-119.499998" height="539.999987" fill-opacity="0.8"/></g></mask><clipPath id="dee6a8edb8"><path d="M 3 1 L 7.558594 1 L 7.558594 58.679688 L 3 58.679688 Z M 3 1 " clip-rule="nonzero"/></clipPath><clipPath id="83f46e4806"><path d="M -297 -126.394531 L -6.292969 -139.492188 L 7.445312 165.449219 L -283.261719 178.546875 Z M -297 -126.394531 " clip-rule="nonzero"/></clipPath><clipPath id="5cd20dbdf6"><path d="M -297 -126.394531 L 7.941406 -140.132812 L 21.679688 164.808594 L -283.261719 178.546875 Z M -297 -126.394531 " clip-rule="nonzero"/></clipPath><clipPath id="96342703c8"><rect x="0" width="8" y="0" height="59"/></clipPath><clipPath id="3cf30ed83f"><path d="M 69 254 L 138 254 L 138 283 L 69 283 Z M 69 254 " clip-rule="nonzero"/></clipPath><clipPath id="c83e23cebb"><path d="M 0 13.605469 L 290.707031 0.507812 L 304.445312 305.449219 L 13.738281 318.546875 Z M 0 13.605469 " clip-rule="nonzero"/></clipPath><clipPath id="4bfe571cf2"><path d="M 0 13.605469 L 304.941406 -0.132812 L 318.679688 304.808594 L 13.738281 318.546875 Z M 0 13.605469 " clip-rule="nonzero"/></clipPath><clipPath id="4d386c72e5"><path d="M 2 8 L 131 8 L 131 231 L 2 231 Z M 2 8 " clip-rule="nonzero"/></clipPath><clipPath id="f87cdea149"><path d="M 0 13.605469 L 290.707031 0.507812 L 304.445312 305.449219 L 13.738281 318.546875 Z M 0 13.605469 " clip-rule="nonzero"/></clipPath><clipPath id="6d149aa1c5"><path d="M 0 13.605469 L 304.941406 -0.132812 L 318.679688 304.808594 L 13.738281 318.546875 Z M 0 13.605469 " clip-rule="nonzero"/></clipPath><mask id="3b41b79ec9"><g filter="url(#f6899a54b9)"><rect x="-82.5" width="540" fill="#000000" y="-119.499998" height="539.999987" fill-opacity="0.698"/></g></mask><clipPath id="4b5f02b5b0"><path d="M 7 0.359375 L 120 0.359375 L 120 221 L 7 221 Z M 7 0.359375 " clip-rule="nonzero"/></clipPath><clipPath id="abab45adbc"><path d="M -2 5.605469 L 288.707031 -7.492188 L 302.445312 297.449219 L 11.738281 310.546875 Z M -2 5.605469 " clip-rule="nonzero"/></clipPath><clipPath id="9f047640fe"><path d="M -2 5.605469 L 302.941406 -8.132812 L 316.679688 296.808594 L 11.738281 310.546875 Z M -2 5.605469 " clip-rule="nonzero"/></clipPath><clipPath id="300dd16bd5"><rect x="0" width="129" y="0" height="223"/></clipPath><clipPath id="3192668a9f"><path d="M 0.238281 0.441406 L 304.558594 0.441406 L 304.558594 318.679688 L 0.238281 318.679688 Z M 0.238281 0.441406 " clip-rule="nonzero"/></clipPath><clipPath id="355af0e9fb"><path d="M 0 13.605469 L 290.707031 0.507812 L 304.445312 305.449219 L 13.738281 318.546875 Z M 0 13.605469 " clip-rule="nonzero"/></clipPath><clipPath id="c16db5b574"><path d="M 0 13.605469 L 304.941406 -0.132812 L 318.679688 304.808594 L 13.738281 318.546875 Z M 0 13.605469 " clip-rule="nonzero"/></clipPath><mask id="accc1c697c"><g filter="url(#f6899a54b9)"><rect x="-82.5" width="540" fill="#000000" y="-119.499998" height="539.999987" fill-opacity="0.8"/></g></mask><clipPath id="8dd1e3125d"><path d="M 6 7 L 298 7 L 298 312 L 6 312 Z M 6 7 " clip-rule="nonzero"/></clipPath><clipPath id="2e5118a174"><path d="M 0 13.605469 L 290.707031 0.507812 L 304.445312 305.449219 L 13.738281 318.546875 Z M 0 13.605469 " clip-rule="nonzero"/></clipPath><clipPath id="403ab2beb2"><path d="M 0 13.605469 L 304.941406 -0.132812 L 318.679688 304.808594 L 13.738281 318.546875 Z M 0 13.605469 " clip-rule="nonzero"/></clipPath><clipPath id="e454b37cd9"><rect x="0" width="305" y="0" height="319"/></clipPath><clipPath id="3a50d0a26f"><rect x="0" width="305" y="0" height="319"/></clipPath></defs><rect x="-37.5" width="450" fill="#ffffff" y="-37.499999" height="449.999989" fill-opacity="1"/><rect x="-37.5" width="450" fill="#ffffff" y="-37.499999" height="449.999989" fill-opacity="1"/><rect x="-37.5" width="450" fill="#ffffff" y="-37.499999" height="449.999989" fill-opacity="1"/><g clip-path="url(#f59d5d6e92)"><g clip-path="url(#6e0a99c949)"><g clip-path="url(#f87911a99d)"><g mask="url(#48b5c4f886)"><g transform="matrix(1, 0, 0, 1, 0, 37)"><g clip-path="url(#3a50d0a26f)"><g clip-path="url(#39bb30a4ef)"><g clip-path="url(#11186fc0ec)"><g clip-path="url(#7dcc8b4e74)"><g mask="url(#109516d912)"><g transform="matrix(1, 0, 0, 1, 297, 140)"><g clip-path="url(#96342703c8)"><g clip-path="url(#dee6a8edb8)"><g clip-path="url(#83f46e4806)"><g clip-path="url(#5cd20dbdf6)"><path fill="#00a8a8" d="M 14.882812 13.929688 C 14.542969 15.273438 13.96875 17.296875 13.394531 19.316406 C 12.820312 21.335938 12.117188 23.363281 11.769531 24.574219 C 11.488281 24.1875 11.445312 23.257812 11.378906 21.800781 C 11.320312 20.472656 11.371094 18.609375 11.28125 16.617188 C 11.191406 14.628906 11.222656 12.367188 10.992188 10.25 C 10.757812 8 10.65625 5.742188 10.300781 3.765625 C 8.585938 -1.875 6.101562 5.019531 6.542969 8.855469 C 6.664062 17.492188 6.46875 27.871094 5.546875 36.953125 C 5.46875 38.15625 5.382812 39.222656 5.300781 40.289062 C 5.214844 41.359375 4.996094 42.429688 4.910156 43.5 C 4.742188 45.632812 4.558594 47.503906 4.246094 49.378906 C 4.058594 51.117188 3.871094 52.855469 3.796875 54.1875 C 3.597656 55.660156 3.511719 56.726562 3.554688 57.65625 C 3.335938 58.726562 3.597656 58.582031 4.089844 57.761719 C 4.714844 56.804688 5.570312 55.171875 6.53125 52.867188 C 7.011719 51.78125 7.617188 50.425781 8.089844 49.074219 C 8.691406 47.714844 9.152344 46.101562 9.617188 44.617188 C 10.671875 41.511719 11.445312 38.019531 12.21875 34.527344 C 12.425781 30.261719 12.632812 26 12.449219 21.886719 " fill-opacity="1" fill-rule="nonzero"/></g></g></g></g></g></g></g></g></g><g clip-path="url(#3cf30ed83f)"><g clip-path="url(#c83e23cebb)"><g clip-path="url(#4bfe571cf2)"><path fill="#00a8a8" d="M 75.519531 258.453125 C 74.5625 257.832031 73.46875 257.214844 72.511719 256.59375 C 71.550781 255.972656 70.59375 255.351562 69.636719 254.730469 C 74.097656 259.316406 78.671875 263.496094 83.917969 267.78125 C 89.164062 272.066406 95.199219 276.183594 102.96875 280.355469 C 108.949219 283.273438 106.261719 279.671875 102.257812 276.398438 C 104.421875 277.230469 106.316406 277.941406 108.203125 278.523438 C 110.089844 279.101562 111.707031 279.5625 113.324219 280.019531 C 114.933594 280.347656 116.410156 280.679688 117.882812 280.878906 C 118.554688 280.980469 119.222656 281.082031 119.898438 281.320312 C 120.566406 281.421875 121.238281 281.523438 121.90625 281.628906 C 124.445312 281.914062 126.851562 282.203125 129.386719 282.355469 C 130.585938 282.433594 131.785156 282.511719 133.117188 282.585938 C 134.453125 282.660156 135.785156 282.730469 137.117188 282.804688 C 127.226562 281.652344 116.894531 279.59375 107.039062 276.3125 C 97.179688 272.902344 87.539062 268.417969 78.910156 262.820312 C 77.507812 261.289062 76.515625 259.871094 75.519531 258.453125 Z M 75.519531 258.453125 " fill-opacity="1" fill-rule="nonzero"/></g></g></g><g clip-path="url(#4d386c72e5)"><g clip-path="url(#f87cdea149)"><g clip-path="url(#6d149aa1c5)"><g mask="url(#3b41b79ec9)"><g transform="matrix(1, 0, 0, 1, 2, 8)"><g clip-path="url(#300dd16bd5)"><g clip-path="url(#4b5f02b5b0)"><g clip-path="url(#abab45adbc)"><g clip-path="url(#9f047640fe)"><path fill="#00a8a8" d="M 111.144531 2.371094 C 100.507812 5.375 90.058594 9.570312 80.203125 15.066406 C 63.097656 25.011719 47.621094 38.605469 35.71875 54.832031 C 23.6875 71.066406 15.089844 89.800781 10.78125 109.277344 C 6.472656 128.75 6.445312 148.828125 10.214844 167.542969 C 13.984375 186.253906 21.40625 203.46875 31.488281 217.644531 C 32.035156 218.015625 32.746094 219.046875 33.589844 220.074219 C 21.734375 201.859375 14.28125 181.054688 11.460938 159.773438 C 8.640625 138.492188 10.441406 116.472656 17.097656 95.960938 C 23.75 75.449219 34.996094 56.460938 49.984375 40.894531 C 64.972656 25.324219 83.308594 13.199219 103.59375 6.035156 C 104.386719 5.867188 106.351562 5.246094 109.089844 4.058594 C 110.398438 3.601562 111.96875 2.996094 113.671875 2.390625 C 114.453125 2.085938 115.371094 1.78125 116.289062 1.472656 C 117.203125 1.164062 118.121094 0.859375 119.042969 0.683594 C 117.855469 0.871094 116.664062 0.925781 115.347656 1.25 C 114.03125 1.574219 112.585938 1.90625 111.144531 2.371094 Z M 111.144531 2.371094 " fill-opacity="1" fill-rule="nonzero"/></g></g></g></g></g></g></g></g></g><g clip-path="url(#3192668a9f)"><g clip-path="url(#355af0e9fb)"><g clip-path="url(#c16db5b574)"><g mask="url(#accc1c697c)"><g><g clip-path="url(#e454b37cd9)"><g clip-path="url(#8dd1e3125d)"><g clip-path="url(#2e5118a174)"><g clip-path="url(#403ab2beb2)"><path fill="#00a8a8" d="M 258.617188 48.890625 C 257.3125 46.558594 254.066406 42.316406 254.066406 42.316406 C 237.542969 29.761719 220.910156 20.671875 202.15625 14.605469 C 192.84375 11.566406 183.039062 9.347656 172.484375 8.226562 C 161.929688 7.109375 150.625 7.085938 138.734375 8.816406 C 133.585938 9.582031 128.988281 7.925781 120.917969 8.824219 C 120 9.128906 119.085938 9.4375 118.160156 9.613281 C 117.246094 9.917969 116.460938 10.21875 115.542969 10.527344 C 113.84375 11.136719 112.273438 11.738281 110.964844 12.195312 C 108.21875 13.25 106.257812 14.003906 105.46875 14.171875 C 85.308594 21.199219 66.972656 33.324219 51.984375 48.894531 C 36.996094 64.460938 25.75 83.449219 19.097656 103.960938 C 12.441406 124.472656 10.640625 146.492188 13.460938 167.773438 C 16.28125 189.054688 23.734375 209.859375 35.457031 228.082031 C 37.574219 230.777344 39.996094 234.390625 38.171875 232.214844 C 38.171875 232.214844 38.316406 232.472656 38.738281 232.984375 C 39.160156 233.5 39.726562 234.269531 40.429688 235.167969 C 41.136719 236.070312 41.988281 237.226562 42.96875 238.378906 C 43.953125 239.53125 44.941406 240.816406 46.0625 242.097656 C 50.421875 247.351562 55.738281 253.226562 58.015625 256.582031 C 57.457031 255.945312 56.761719 255.308594 56.207031 254.804688 C 55.648438 254.164062 55.085938 253.523438 54.53125 253.015625 C 53.410156 251.738281 52.296875 250.589844 51.3125 249.4375 C 49.339844 247 47.109375 244.707031 45.132812 242.136719 C 41.058594 237.269531 37.222656 231.855469 33.082031 225.527344 C 33.214844 225.523438 33.222656 225.65625 33.359375 225.78125 C 23.40625 211.46875 15.84375 194.125 12.214844 175.542969 C 8.445312 156.828125 8.472656 136.75 12.78125 117.277344 C 17.089844 97.800781 25.679688 78.933594 37.71875 62.832031 C 49.621094 46.605469 65.097656 33.011719 82.203125 23.066406 C 75.582031 26.6875 69.128906 30.96875 63.089844 35.628906 C 60 37.894531 57.0625 40.554688 54.117188 43.078125 L 49.910156 47.125 C 48.511719 48.519531 47.242188 49.90625 45.84375 51.296875 C 40.515625 56.988281 35.476562 63.199219 30.992188 69.917969 C 26.507812 76.632812 22.566406 83.59375 19.179688 91.058594 C 15.785156 98.390625 13.214844 106.21875 11.046875 114.164062 C 9.898438 118.203125 9.148438 122.226562 8.40625 126.382812 C 8.097656 128.390625 7.792969 130.53125 7.484375 132.539062 C 7.316406 134.675781 7.144531 136.808594 6.96875 138.8125 C 6.417969 147.214844 6.402344 155.726562 7.316406 164.195312 C 8.230469 172.664062 9.804688 181.101562 12.179688 189.503906 C 15.144531 199.210938 19.3125 209.128906 24.121094 218.484375 C 28.933594 227.84375 34.640625 236.496094 40.289062 243.820312 C 48.652344 255.277344 57.949219 263.898438 67.722656 271.304688 L 69.511719 272.6875 L 71.4375 274.0625 L 75.144531 276.6875 C 76.382812 277.5625 77.742188 278.296875 78.980469 279.171875 C 80.214844 280.050781 81.585938 280.917969 82.949219 281.65625 C 84.316406 282.523438 85.679688 283.261719 86.914062 284.136719 C 88.285156 285.003906 89.648438 285.742188 91.011719 286.476562 C 93.742188 288.082031 96.734375 289.542969 99.734375 291.269531 C 101.238281 292.132812 102.726562 292.730469 104.089844 293.46875 C 105.585938 294.195312 106.949219 294.933594 108.304688 295.539062 C 109.664062 296.140625 111.023438 296.878906 112.382812 297.480469 C 113.0625 297.847656 113.738281 298.085938 114.421875 298.453125 C 115.097656 298.6875 115.777344 299.058594 116.453125 299.292969 C 119.035156 300.503906 121.746094 301.714844 124.316406 302.660156 C 125.667969 303.132812 127.023438 303.734375 128.375 304.207031 C 129.726562 304.679688 131.078125 305.148438 132.5625 305.613281 C 133.910156 306.085938 135.394531 306.550781 136.878906 307.015625 C 138.355469 307.347656 139.839844 307.8125 141.457031 308.269531 C 142.265625 308.5 143.066406 308.597656 143.875 308.828125 C 144.675781 308.925781 145.484375 309.152344 146.289062 309.25 C 148.03125 309.570312 149.640625 309.898438 151.511719 310.078125 C 158.730469 310.949219 167 311.507812 176.660156 310.542969 C 179.703125 310.136719 182.074219 309.632812 184.179688 309.140625 C 186.28125 308.644531 188.117188 308.03125 189.949219 307.417969 C 190.867188 307.109375 191.785156 306.800781 192.703125 306.496094 C 193.617188 306.1875 194.53125 305.746094 195.578125 305.433594 C 197.671875 304.675781 199.910156 304.175781 202.792969 303.246094 C 204.234375 302.785156 205.683594 302.453125 207.265625 302.117188 C 208.710938 301.785156 210.285156 301.3125 211.734375 300.984375 C 214.761719 300.316406 217.785156 299.515625 220.539062 298.726562 C 223.304688 298.070312 225.921875 297.152344 228.019531 296.527344 C 230.121094 295.898438 231.816406 295.160156 232.71875 294.585938 C 243.375 289.054688 252.25 282.402344 259.902344 275.144531 C 267.679688 267.746094 274.363281 259.734375 280.863281 250.53125 C 282.113281 248.746094 283.484375 246.691406 284.859375 244.769531 C 286.234375 242.84375 287.339844 240.800781 288.457031 239.019531 C 289.574219 237.242188 290.429688 235.609375 291.035156 234.25 C 291.636719 232.894531 291.992188 231.949219 291.976562 231.550781 C 291.890625 229.691406 290.96875 229.867188 290.914062 228.671875 C 290.890625 228.140625 291.117188 227.199219 291.707031 225.578125 C 292.070312 224.761719 292.425781 223.816406 293.035156 222.59375 C 293.644531 221.367188 294.242188 219.878906 295.09375 218.113281 C 294.210938 219.214844 293.085938 220.730469 291.96875 222.507812 C 290.710938 224.160156 289.464844 225.945312 288.339844 227.589844 C 285.824219 230.761719 283.933594 233.109375 283.894531 232.179688 C 284.617188 230.550781 285.46875 228.785156 286.3125 226.882812 C 287.160156 224.984375 288.132812 222.945312 288.976562 221.046875 C 290.660156 217.113281 292.34375 213.183594 293.015625 210.359375 C 291.433594 213.621094 289.449219 216.769531 287.589844 219.78125 C 286.59375 221.289062 285.597656 222.792969 284.601562 224.300781 C 283.605469 225.808594 282.472656 227.191406 281.476562 228.699219 C 279.984375 231.027344 278.34375 232.960938 276.828125 234.757812 C 275.449219 236.546875 273.921875 238.082031 272.527344 239.605469 C 271.132812 241.132812 269.605469 242.664062 268.199219 243.921875 C 267.320312 245.027344 266.824219 245.847656 266.824219 245.847656 C 265.671875 246.828125 264.382812 247.683594 263.355469 248.527344 C 262.195312 249.378906 261.171875 250.222656 260.011719 251.074219 C 258.988281 251.917969 257.824219 252.632812 256.796875 253.476562 L 255.253906 254.613281 L 253.707031 255.746094 C 252.5625 256.859375 251.15625 258.121094 249.484375 259.390625 C 247.8125 260.664062 246.140625 261.9375 244.464844 263.074219 C 242.65625 264.222656 240.976562 265.359375 239.566406 266.488281 C 238.148438 267.480469 236.863281 268.472656 235.96875 269.308594 C 236.332031 268.496094 236.054688 268.242188 235.515625 268.132812 C 234.746094 268.699219 233.96875 269.132812 233.195312 269.699219 C 232.417969 270.132812 231.511719 270.707031 230.605469 271.277344 C 228.789062 272.292969 226.980469 273.4375 224.90625 274.59375 C 223.589844 274.917969 221.75 275.402344 219.773438 275.757812 C 217.792969 276.109375 215.949219 276.460938 214.625 276.652344 C 212.941406 277.660156 210.335938 278.839844 208.128906 280.003906 C 205.914062 281.035156 204.085938 281.78125 204.085938 281.78125 C 201.714844 282.289062 199.859375 282.371094 198.527344 282.296875 C 197.191406 282.226562 196.121094 282.007812 195.179688 281.785156 C 191.367188 282.753906 187.292969 283.867188 183.222656 284.980469 C 182.421875 284.886719 181.617188 284.789062 180.550781 284.703125 C 179.617188 284.613281 178.414062 284.535156 177.347656 284.449219 C 176.148438 284.371094 174.953125 284.421875 173.621094 284.351562 C 172.289062 284.277344 170.953125 284.203125 169.488281 284.136719 C 166.574219 284.402344 163.644531 284.269531 160.984375 284.253906 C 158.316406 284.109375 155.777344 283.824219 153.511719 283.660156 C 151.375 283.492188 149.375 283.316406 147.238281 283.144531 C 145.234375 282.96875 143.226562 282.660156 141.359375 282.480469 C 139.757812 282.417969 138.289062 282.21875 136.683594 282.027344 C 135.21875 281.957031 134.019531 281.878906 132.683594 281.808594 C 131.351562 281.734375 130.152344 281.65625 128.953125 281.578125 C 126.550781 281.417969 124.144531 281.128906 121.472656 280.847656 C 120.804688 280.746094 120.132812 280.644531 119.464844 280.542969 C 118.792969 280.4375 118.125 280.335938 117.449219 280.101562 C 115.976562 279.902344 114.5 279.566406 112.890625 279.242188 C 111.273438 278.78125 109.65625 278.324219 107.769531 277.742188 C 105.886719 277.296875 103.988281 276.453125 101.824219 275.617188 C 105.828125 278.894531 108.515625 282.496094 102.535156 279.574219 C 94.765625 275.40625 88.730469 271.289062 83.484375 267.003906 C 78.238281 262.71875 73.667969 258.671875 69.199219 253.953125 C 62.066406 249.085938 55.867188 244.3125 50.527344 237.90625 C 50.527344 237.90625 50.226562 237.121094 49.640625 235.953125 C 49.191406 234.773438 48.464844 233.476562 48.007812 232.167969 C 46.875 230.625 45.609375 229.085938 44.476562 227.542969 C 36.757812 218.582031 31.140625 208.996094 28.074219 197.03125 C 24.296875 186.964844 21.691406 176.3125 20.539062 165.460938 C 20.050781 163.488281 19.699219 161.640625 19.34375 159.664062 C 18.996094 157.816406 18.640625 155.839844 18.429688 154.121094 C 17.796875 151.886719 17.792969 148.828125 18.191406 145.886719 C 18.390625 144.414062 18.726562 142.9375 18.929688 141.597656 C 19.269531 140.253906 19.613281 139.042969 19.96875 138.09375 C 20.222656 134.890625 20.742188 131.675781 21.132812 128.46875 C 21.75 118.601562 23.789062 107.738281 27.078125 98.148438 C 27.398438 96.40625 27.726562 94.796875 28.050781 93.1875 C 28.378906 91.574219 28.703125 89.964844 28.898438 88.359375 C 29.222656 89.675781 29.28125 91.003906 28.386719 94.765625 C 31.964844 85.5625 36.808594 78.03125 41.429688 74.367188 C 42.414062 72.59375 43.265625 70.828125 44.003906 69.464844 C 44.738281 68.101562 45.234375 67.28125 45.234375 67.28125 C 46.132812 66.574219 47.28125 65.460938 48.691406 64.332031 C 57.285156 51.445312 68.429688 39.109375 80.296875 30.996094 C 81.832031 29.597656 78.765625 32.394531 76.605469 34.621094 C 75.589844 35.730469 74.84375 36.828125 74.859375 37.226562 C 75.011719 37.617188 75.929688 37.308594 78.527344 35.996094 C 79.824219 35.273438 81.125 34.550781 82.421875 33.828125 C 83.71875 33.101562 85.148438 32.375 86.570312 31.511719 C 87.214844 31.085938 87.996094 30.648438 88.644531 30.355469 C 89.292969 29.925781 90.074219 29.625 90.855469 29.191406 C 92.285156 28.460938 93.707031 27.601562 95.269531 26.863281 C 101.117188 23.808594 107.511719 21.128906 113.53125 18.996094 C 115.628906 18.367188 117.730469 17.742188 119.703125 17.253906 C 121.675781 16.765625 123.785156 16.40625 125.632812 16.054688 C 129.84375 15.070312 134.058594 14.214844 138.546875 13.480469 C 157.277344 10.109375 177.109375 10.546875 196.074219 15.410156 C 215.042969 20.273438 232.867188 29.308594 248.195312 41.914062 C 263.519531 54.390625 275.804688 70.324219 284.308594 87.890625 C 292.8125 105.457031 297.140625 124.808594 297.332031 143.816406 C 297.355469 126.660156 294.214844 110.050781 287.90625 93.976562 C 282.019531 78.421875 272.410156 62.898438 258.617188 48.890625 Z M 258.617188 48.890625 " fill-opacity="1" fill-rule="nonzero"/></g></g></g></g></g></g></g></g></g></g></g></g></g></g></g><g fill="#000000" fill-opacity="1"><g transform="translate(59.603723, 220.738182)"><g><path d="M 3.777344 0 L 44.414062 0 L 44.414062 -5.078125 L 9.335938 -5.078125 L 9.335938 -22.515625 L 40.984375 -22.515625 L 40.984375 -27.460938 L 9.335938 -27.460938 L 9.335938 -43.316406 L 43.730469 -43.316406 L 43.730469 -48.398438 L 3.777344 -48.398438 Z M 3.777344 0 "/></g></g></g><g fill="#000000" fill-opacity="1"><g transform="translate(111.980164, 220.738182)"><g><path d="M 3.777344 0 L 26.839844 0 C 44.070312 0 53.613281 -8.648438 53.613281 -24.164062 C 53.613281 -39.746094 44.070312 -48.398438 26.839844 -48.398438 L 3.777344 -48.398438 Z M 9.472656 -5.078125 L 9.472656 -43.316406 L 26.839844 -43.316406 C 40.367188 -43.316406 47.917969 -36.519531 47.917969 -24.164062 C 47.917969 -11.875 40.367188 -5.078125 26.839844 -5.078125 Z M 9.472656 -5.078125 "/></g></g></g><g fill="#000000" fill-opacity="1"><g transform="translate(174.584552, 220.738182)"><g><path d="M 31.441406 1.714844 C 41.945312 1.714844 50.386719 -2.816406 54.988281 -10.089844 L 55.054688 -10.089844 L 55.675781 0 L 60.480469 0 L 60.480469 -26.703125 L 21.691406 -26.703125 L 21.691406 -21.761719 L 54.851562 -21.761719 C 54.851562 -11.328125 44.757812 -3.363281 32.128906 -3.363281 C 18.328125 -3.363281 8.304688 -12.152344 8.304688 -24.164062 C 8.304688 -36.453125 17.710938 -45.101562 30.890625 -45.035156 C 39.402344 -45.035156 47.296875 -40.503906 49.496094 -34.050781 L 54.78125 -35.765625 C 51.96875 -44.140625 41.808594 -50.113281 30.890625 -50.113281 C 14.484375 -50.113281 2.609375 -39.199219 2.609375 -24.164062 C 2.609375 -9.199219 14.691406 1.714844 31.441406 1.714844 Z M 31.441406 1.714844 "/></g></g></g><g fill="#000000" fill-opacity="1"><g transform="translate(244.053346, 220.738182)"><g><path d="M 21.210938 0 L 26.910156 0 L 26.910156 -17.984375 L 47.710938 -48.398438 L 40.847656 -48.398438 L 24.164062 -23.410156 L 24.09375 -23.410156 L 7.140625 -48.398438 L 0.34375 -48.398438 L 21.210938 -17.984375 Z M 21.210938 0 "/></g></g></g><g fill="#00a8a8" fill-opacity="1"><g transform="translate(298.486232, 220.738182)"><g><path d="M 3.777344 0 L 9.472656 0 L 9.472656 -21.761719 L 37.140625 -21.761719 L 37.140625 -26.703125 L 9.472656 -26.703125 L 9.472656 -43.316406 L 41.1875 -43.316406 L 41.1875 -48.398438 L 3.777344 -48.398438 Z M 3.777344 0 "/></g></g></g><g fill="#00a8a8" fill-opacity="1"><g transform="translate(347.293204, 220.738182)"><g><path d="M 3.777344 0 L 9.472656 0 L 9.472656 -48.398438 L 3.777344 -48.398438 Z M 3.777344 0 "/></g></g></g><g fill="#00a8a8" fill-opacity="1"><g transform="translate(62.500006, 245.244438)"><g><path d="M 3.40625 -11.859375 L 3.40625 -6.90625 L 10.84375 -6.90625 L 10.84375 -5.40625 L 3.40625 -5.40625 L 3.40625 0 L 1.59375 0 L 1.59375 -13.34375 L 11.0625 -13.34375 L 11.0625 -11.859375 Z M 3.40625 -11.859375 "/></g></g></g><g fill="#00a8a8" fill-opacity="1"><g transform="translate(77.735037, 245.244438)"><g><path d="M 11.046875 0 L 9.53125 -3.90625 L 3.453125 -3.90625 L 1.90625 0 L 0.03125 0 L 5.484375 -13.34375 L 7.53125 -13.34375 L 12.890625 0 Z M 6.484375 -11.984375 L 6.40625 -11.71875 C 6.238281 -11.1875 6.003906 -10.515625 5.703125 -9.703125 L 4 -5.3125 L 8.984375 -5.3125 L 7.265625 -9.71875 C 7.085938 -10.15625 6.910156 -10.644531 6.734375 -11.1875 Z M 6.484375 -11.984375 "/></g></g></g><g fill="#00a8a8" fill-opacity="1"><g transform="translate(94.058651, 245.244438)"><g><path d="M 12.046875 -3.6875 C 12.046875 -2.457031 11.5625 -1.503906 10.59375 -0.828125 C 9.632812 -0.148438 8.28125 0.1875 6.53125 0.1875 C 3.28125 0.1875 1.394531 -0.941406 0.875 -3.203125 L 2.625 -3.546875 C 2.832031 -2.742188 3.265625 -2.15625 3.921875 -1.78125 C 4.578125 -1.40625 5.46875 -1.21875 6.59375 -1.21875 C 7.757812 -1.21875 8.660156 -1.414062 9.296875 -1.8125 C 9.929688 -2.21875 10.25 -2.8125 10.25 -3.59375 C 10.25 -4.019531 10.148438 -4.367188 9.953125 -4.640625 C 9.753906 -4.921875 9.472656 -5.148438 9.109375 -5.328125 C 8.753906 -5.503906 8.328125 -5.648438 7.828125 -5.765625 C 7.328125 -5.890625 6.773438 -6.019531 6.171875 -6.15625 C 5.117188 -6.382812 4.316406 -6.613281 3.765625 -6.84375 C 3.222656 -7.082031 2.789062 -7.34375 2.46875 -7.625 C 2.15625 -7.914062 1.914062 -8.253906 1.75 -8.640625 C 1.582031 -9.023438 1.5 -9.46875 1.5 -9.96875 C 1.5 -11.113281 1.9375 -11.992188 2.8125 -12.609375 C 3.6875 -13.234375 4.941406 -13.546875 6.578125 -13.546875 C 8.085938 -13.546875 9.242188 -13.3125 10.046875 -12.84375 C 10.847656 -12.375 11.410156 -11.582031 11.734375 -10.46875 L 9.953125 -10.15625 C 9.753906 -10.863281 9.378906 -11.375 8.828125 -11.6875 C 8.285156 -12.007812 7.523438 -12.171875 6.546875 -12.171875 C 5.484375 -12.171875 4.671875 -11.992188 4.109375 -11.640625 C 3.546875 -11.285156 3.265625 -10.757812 3.265625 -10.0625 C 3.265625 -9.65625 3.375 -9.316406 3.59375 -9.046875 C 3.8125 -8.773438 4.125 -8.546875 4.53125 -8.359375 C 4.945312 -8.171875 5.765625 -7.941406 6.984375 -7.671875 C 7.398438 -7.578125 7.8125 -7.484375 8.21875 -7.390625 C 8.625 -7.296875 9.007812 -7.179688 9.375 -7.046875 C 9.75 -6.910156 10.097656 -6.75 10.421875 -6.5625 C 10.753906 -6.375 11.039062 -6.144531 11.28125 -5.875 C 11.519531 -5.613281 11.707031 -5.300781 11.84375 -4.9375 C 11.976562 -4.582031 12.046875 -4.164062 12.046875 -3.6875 Z M 12.046875 -3.6875 "/></g></g></g><g fill="#00a8a8" fill-opacity="1"><g transform="translate(110.382266, 245.244438)"><g><path d="M 10.609375 0 L 10.609375 -6.1875 L 3.40625 -6.1875 L 3.40625 0 L 1.59375 0 L 1.59375 -13.34375 L 3.40625 -13.34375 L 3.40625 -7.703125 L 10.609375 -7.703125 L 10.609375 -13.34375 L 12.421875 -13.34375 L 12.421875 0 Z M 10.609375 0 "/></g></g></g><g fill="#00a8a8" fill-opacity="1"><g transform="translate(127.775532, 245.244438)"><g><path d="M 1.796875 0 L 1.796875 -13.34375 L 3.59375 -13.34375 L 3.59375 0 Z M 1.796875 0 "/></g></g></g><g fill="#00a8a8" fill-opacity="1"><g transform="translate(136.554788, 245.244438)"><g><path d="M 14.15625 -6.734375 C 14.15625 -5.335938 13.882812 -4.113281 13.34375 -3.0625 C 12.8125 -2.019531 12.046875 -1.21875 11.046875 -0.65625 C 10.054688 -0.09375 8.882812 0.1875 7.53125 0.1875 C 6.15625 0.1875 4.96875 -0.0859375 3.96875 -0.640625 C 2.976562 -1.203125 2.222656 -2.003906 1.703125 -3.046875 C 1.179688 -4.097656 0.921875 -5.328125 0.921875 -6.734375 C 0.921875 -8.867188 1.503906 -10.535156 2.671875 -11.734375 C 3.835938 -12.941406 5.460938 -13.546875 7.546875 -13.546875 C 8.898438 -13.546875 10.078125 -13.273438 11.078125 -12.734375 C 12.078125 -12.191406 12.835938 -11.40625 13.359375 -10.375 C 13.890625 -9.34375 14.15625 -8.128906 14.15625 -6.734375 Z M 12.3125 -6.734375 C 12.3125 -8.390625 11.894531 -9.691406 11.0625 -10.640625 C 10.226562 -11.585938 9.054688 -12.0625 7.546875 -12.0625 C 6.015625 -12.0625 4.832031 -11.59375 4 -10.65625 C 3.164062 -9.726562 2.75 -8.421875 2.75 -6.734375 C 2.75 -5.054688 3.171875 -3.726562 4.015625 -2.75 C 4.859375 -1.769531 6.03125 -1.28125 7.53125 -1.28125 C 9.070312 -1.28125 10.253906 -1.753906 11.078125 -2.703125 C 11.898438 -3.648438 12.3125 -4.992188 12.3125 -6.734375 Z M 12.3125 -6.734375 "/></g></g></g><g fill="#00a8a8" fill-opacity="1"><g transform="translate(155.027172, 245.244438)"><g><path d="M 10.25 0 L 3.109375 -11.359375 L 3.15625 -10.4375 L 3.203125 -8.859375 L 3.203125 0 L 1.59375 0 L 1.59375 -13.34375 L 3.6875 -13.34375 L 10.90625 -1.90625 C 10.832031 -3.144531 10.796875 -4.039062 10.796875 -4.59375 L 10.796875 -13.34375 L 12.421875 -13.34375 L 12.421875 0 Z M 10.25 0 "/></g></g></g><g fill="#00a8a8" fill-opacity="1"><g transform="translate(172.420433, 245.244438)"><g/></g></g><g fill="#00a8a8" fill-opacity="1"><g transform="translate(181.199684, 245.244438)"><g><path d="M 1.796875 0 L 1.796875 -13.34375 L 3.59375 -13.34375 L 3.59375 0 Z M 1.796875 0 "/></g></g></g><g fill="#00a8a8" fill-opacity="1"><g transform="translate(189.978935, 245.244438)"><g><path d="M 10.25 0 L 3.109375 -11.359375 L 3.15625 -10.4375 L 3.203125 -8.859375 L 3.203125 0 L 1.59375 0 L 1.59375 -13.34375 L 3.6875 -13.34375 L 10.90625 -1.90625 C 10.832031 -3.144531 10.796875 -4.039062 10.796875 -4.59375 L 10.796875 -13.34375 L 12.421875 -13.34375 L 12.421875 0 Z M 10.25 0 "/></g></g></g><g fill="#00a8a8" fill-opacity="1"><g transform="translate(207.372207, 245.244438)"><g><path d="M 6.8125 -11.859375 L 6.8125 0 L 5.015625 0 L 5.015625 -11.859375 L 0.4375 -11.859375 L 0.4375 -13.34375 L 11.40625 -13.34375 L 11.40625 -11.859375 Z M 6.8125 -11.859375 "/></g></g></g><g fill="#00a8a8" fill-opacity="1"><g transform="translate(222.607244, 245.244438)"><g><path d="M 1.59375 0 L 1.59375 -13.34375 L 11.71875 -13.34375 L 11.71875 -11.859375 L 3.40625 -11.859375 L 3.40625 -7.578125 L 11.140625 -7.578125 L 11.140625 -6.125 L 3.40625 -6.125 L 3.40625 -1.484375 L 12.09375 -1.484375 L 12.09375 0 Z M 1.59375 0 "/></g></g></g><g fill="#00a8a8" fill-opacity="1"><g transform="translate(238.930852, 245.244438)"><g><path d="M 1.59375 0 L 1.59375 -13.34375 L 3.40625 -13.34375 L 3.40625 -1.484375 L 10.140625 -1.484375 L 10.140625 0 Z M 1.59375 0 "/></g></g></g><g fill="#00a8a8" fill-opacity="1"><g transform="translate(253.105703, 245.244438)"><g><path d="M 1.59375 0 L 1.59375 -13.34375 L 3.40625 -13.34375 L 3.40625 -1.484375 L 10.140625 -1.484375 L 10.140625 0 Z M 1.59375 0 "/></g></g></g><g fill="#00a8a8" fill-opacity="1"><g transform="translate(267.280553, 245.244438)"><g><path d="M 1.796875 0 L 1.796875 -13.34375 L 3.59375 -13.34375 L 3.59375 0 Z M 1.796875 0 "/></g></g></g><g fill="#00a8a8" fill-opacity="1"><g transform="translate(276.059816, 245.244438)"><g><path d="M 0.96875 -6.734375 C 0.96875 -8.898438 1.546875 -10.578125 2.703125 -11.765625 C 3.867188 -12.953125 5.503906 -13.546875 7.609375 -13.546875 C 9.085938 -13.546875 10.285156 -13.296875 11.203125 -12.796875 C 12.128906 -12.296875 12.84375 -11.492188 13.34375 -10.390625 L 11.625 -9.890625 C 11.238281 -10.640625 10.710938 -11.1875 10.046875 -11.53125 C 9.378906 -11.882812 8.550781 -12.0625 7.5625 -12.0625 C 6.019531 -12.0625 4.84375 -11.59375 4.03125 -10.65625 C 3.21875 -9.726562 2.8125 -8.421875 2.8125 -6.734375 C 2.8125 -5.046875 3.242188 -3.710938 4.109375 -2.734375 C 4.972656 -1.765625 6.171875 -1.28125 7.703125 -1.28125 C 8.566406 -1.28125 9.375 -1.410156 10.125 -1.671875 C 10.882812 -1.941406 11.5 -2.300781 11.96875 -2.75 L 11.96875 -5.15625 L 7.984375 -5.15625 L 7.984375 -6.671875 L 13.640625 -6.671875 L 13.640625 -2.078125 C 12.929688 -1.359375 12.0625 -0.800781 11.03125 -0.40625 C 10.007812 -0.0078125 8.898438 0.1875 7.703125 0.1875 C 6.304688 0.1875 5.101562 -0.0859375 4.09375 -0.640625 C 3.082031 -1.203125 2.304688 -2.003906 1.765625 -3.046875 C 1.234375 -4.085938 0.96875 -5.316406 0.96875 -6.734375 Z M 0.96875 -6.734375 "/></g></g></g><g fill="#00a8a8" fill-opacity="1"><g transform="translate(294.532206, 245.244438)"><g><path d="M 1.59375 0 L 1.59375 -13.34375 L 11.71875 -13.34375 L 11.71875 -11.859375 L 3.40625 -11.859375 L 3.40625 -7.578125 L 11.140625 -7.578125 L 11.140625 -6.125 L 3.40625 -6.125 L 3.40625 -1.484375 L 12.09375 -1.484375 L 12.09375 0 Z M 1.59375 0 "/></g></g></g><g fill="#00a8a8" fill-opacity="1"><g transform="translate(310.855814, 245.244438)"><g><path d="M 10.25 0 L 3.109375 -11.359375 L 3.15625 -10.4375 L 3.203125 -8.859375 L 3.203125 0 L 1.59375 0 L 1.59375 -13.34375 L 3.6875 -13.34375 L 10.90625 -1.90625 C 10.832031 -3.144531 10.796875 -4.039062 10.796875 -4.59375 L 10.796875 -13.34375 L 12.421875 -13.34375 L 12.421875 0 Z M 10.25 0 "/></g></g></g><g fill="#00a8a8" fill-opacity="1"><g transform="translate(328.249086, 245.244438)"><g><path d="M 7.5 -12.0625 C 6.019531 -12.0625 4.867188 -11.585938 4.046875 -10.640625 C 3.234375 -9.691406 2.828125 -8.390625 2.828125 -6.734375 C 2.828125 -5.097656 3.253906 -3.78125 4.109375 -2.78125 C 4.960938 -1.789062 6.117188 -1.296875 7.578125 -1.296875 C 9.441406 -1.296875 10.84375 -2.222656 11.78125 -4.078125 L 13.265625 -3.328125 C 12.710938 -2.179688 11.9375 -1.304688 10.9375 -0.703125 C 9.945312 -0.109375 8.796875 0.1875 7.484375 0.1875 C 6.140625 0.1875 4.976562 -0.0859375 4 -0.640625 C 3.019531 -1.203125 2.269531 -2 1.75 -3.03125 C 1.238281 -4.070312 0.984375 -5.304688 0.984375 -6.734375 C 0.984375 -8.859375 1.554688 -10.523438 2.703125 -11.734375 C 3.859375 -12.941406 5.453125 -13.546875 7.484375 -13.546875 C 8.898438 -13.546875 10.082031 -13.265625 11.03125 -12.703125 C 11.988281 -12.148438 12.691406 -11.328125 13.140625 -10.234375 L 11.421875 -9.671875 C 11.117188 -10.441406 10.625 -11.03125 9.9375 -11.4375 C 9.25 -11.851562 8.4375 -12.0625 7.5 -12.0625 Z M 7.5 -12.0625 "/></g></g></g><g fill="#00a8a8" fill-opacity="1"><g transform="translate(345.642358, 245.244438)"><g><path d="M 1.59375 0 L 1.59375 -13.34375 L 11.71875 -13.34375 L 11.71875 -11.859375 L 3.40625 -11.859375 L 3.40625 -7.578125 L 11.140625 -7.578125 L 11.140625 -6.125 L 3.40625 -6.125 L 3.40625 -1.484375 L 12.09375 -1.484375 L 12.09375 0 Z M 1.59375 0 "/></g></g></g></svg>